<?xml version="1.0" encoding="iso-8859-1"?>
<!-- Generator: Adobe Illustrator 19.0.0, SVG Export Plug-In . SVG Version: 6.00 Build 0)  -->
<svg version="1.1" id="Capa_1" xmlns="http://www.w3.org/2000/svg" xmlns:xlink="http://www.w3.org/1999/xlink" x="0px" y="0px"
	 viewBox="0 0 512 512" style="enable-background:new 0 0 512 512;" xml:space="preserve">
<g>
	<polygon style="fill:#59474E;" points="69.094,475.162 184.285,378.492 133.508,327.715 36.838,442.906 	"/>
	<polyline style="fill:#90BAE1;" points="175.581,336.419 201.004,361.843 256,318.499 269.859,307.641 269.859,307.553 
		324.943,264.21 499.288,126.941 512,0 	"/>
	<g>
		<polygon style="fill:#B0D3F0;" points="150.157,310.996 175.581,336.419 512,0 385.059,12.712 256,176.64 221.043,221.043 
			204.447,242.141 204.359,242.141 187.057,264.21 		"/>
		<polyline style="fill:#B0D3F0;" points="175.581,336.419 150.157,310.996 187.057,264.21 204.359,242.141 204.447,242.141 
			221.043,221.043 256,176.64 385.059,12.712 512,0 		"/>
	</g>
	<g>
		<path style="fill:#3F5C6C;" d="M264.43,256.397c2.341-0.001,4.586-0.931,6.241-2.586L429.374,95.108
			c3.345-3.464,3.298-8.97-0.108-12.375c-3.405-3.405-8.911-3.453-12.375-0.108L258.189,241.329
			c-2.524,2.525-3.279,6.321-1.913,9.619C257.643,254.246,260.861,256.396,264.43,256.397z"/>
		<path style="fill:#3F5C6C;" d="M448.521,72.307c2.341,0,4.586-0.931,6.241-2.586l19.041-19.041
			c2.295-2.216,3.215-5.499,2.407-8.585s-3.218-5.497-6.305-6.305c-3.086-0.808-6.368,0.112-8.585,2.407l-19.059,19.041
			c-2.524,2.525-3.279,6.321-1.913,9.619c1.366,3.298,4.584,5.449,8.154,5.45H448.521z"/>
	</g>
	<g>
		<path style="fill:#F0C419;" d="M94.102,298.372c0.002,4.774,1.908,9.349,5.297,12.712l101.517,101.517
			c7.02,7.02,18.403,7.02,25.423,0c7.02-7.021,7.02-18.403,0-25.423L124.822,285.661c-5.15-5.132-12.88-6.664-19.597-3.884
			C98.507,284.556,94.12,291.102,94.102,298.372z"/>
		<circle style="fill:#F0C419;" cx="35.911" cy="476.089" r="35.911"/>
	</g>
	<circle style="fill:#E57E25;" cx="35.911" cy="476.089" r="17.655"/>
	<polygon style="fill:#59474E;" points="442.906,475.162 327.715,378.492 378.492,327.715 475.162,442.906 	"/>
	<polyline style="fill:#90BAE1;" points="336.419,336.419 310.996,361.843 256,318.499 242.141,307.641 242.141,307.553 
		187.057,264.21 12.712,126.941 0,0 	"/>
	<g>
		<polygon style="fill:#B0D3F0;" points="361.843,310.996 336.419,336.419 0,0 126.941,12.712 256,176.64 290.957,221.043 
			307.553,242.141 307.641,242.141 324.943,264.21 		"/>
		<polyline style="fill:#B0D3F0;" points="336.419,336.419 361.843,310.996 324.943,264.21 307.641,242.141 307.553,242.141 
			290.957,221.043 256,176.64 126.941,12.712 0,0 		"/>
	</g>
	<g>
		<path style="fill:#3F5C6C;" d="M247.57,256.397c-2.341-0.001-4.586-0.931-6.241-2.586L82.626,95.108
			c-3.345-3.464-3.298-8.97,0.108-12.375c3.405-3.405,8.911-3.453,12.375-0.108l158.702,158.702
			c2.524,2.525,3.279,6.321,1.913,9.619C254.357,254.246,251.139,256.396,247.57,256.397z"/>
		<path style="fill:#3F5C6C;" d="M63.479,72.307c-2.338,0.004-4.583-0.92-6.241-2.569L38.197,50.679
			c-3.345-3.464-3.298-8.97,0.108-12.375s8.911-3.453,12.375-0.108l19.059,19.041c2.524,2.525,3.279,6.321,1.913,9.619
			c-1.366,3.298-4.584,5.449-8.154,5.45H63.479z"/>
	</g>
	<g>
		<path style="fill:#F0C419;" d="M417.898,298.372c-0.002,4.774-1.908,9.349-5.297,12.712L311.084,412.601
			c-7.021,7.02-18.403,7.02-25.423,0c-7.021-7.021-7.021-18.403,0-25.423l101.517-101.517c5.15-5.132,12.88-6.664,19.597-3.884
			C413.493,284.556,417.88,291.102,417.898,298.372z"/>
		<circle style="fill:#F0C419;" cx="476.089" cy="476.089" r="35.911"/>
	</g>
	<circle style="fill:#E57E25;" cx="476.089" cy="476.089" r="17.655"/>
</g>
<g>
</g>
<g>
</g>
<g>
</g>
<g>
</g>
<g>
</g>
<g>
</g>
<g>
</g>
<g>
</g>
<g>
</g>
<g>
</g>
<g>
</g>
<g>
</g>
<g>
</g>
<g>
</g>
<g>
</g>
</svg>
